<svg width="113" height="113" viewBox="0 0 113 113" fill="none" xmlns="http://www.w3.org/2000/svg">
<path d="M92.7755 96.9374L99.0597 103.222C100.209 104.371 102.072 104.371 103.221 103.222C104.37 102.072 104.37 100.209 103.221 99.0599L14.94 10.7786C13.7908 9.62945 11.9276 9.62945 10.7784 10.7786C9.6292 11.9278 9.6292 13.7911 10.7784 14.9403L17.0626 21.2244C15.522 23.5504 14.6248 26.3398 14.6248 29.3386V44.6407C14.6248 46.2659 15.9423 47.5834 17.5675 47.5834C19.1928 47.5834 20.5103 46.2659 20.5103 44.6407V29.3386C20.5103 27.9757 20.8191 26.6849 21.3706 25.5325L45.8755 50.0374L45.6412 50.4016C44.3896 52.347 42.5406 53.8458 40.3629 54.674L37.4088 55.7975C34.2171 57.0115 32.3435 60.3398 33.0002 63.704L34.6125 71.9638C35.227 75.1119 37.625 77.6028 40.7361 78.3603L60.1198 83.0797C65.5053 84.3909 70.9457 82.4322 74.294 78.4558L88.4674 92.6293C87.315 93.1808 86.0242 93.4897 84.6613 93.4897H69.3592C67.734 93.4897 66.4165 94.8072 66.4165 96.4324C66.4165 98.0576 67.734 99.3751 69.3592 99.3751H84.6613C87.6602 99.3751 90.4495 98.4779 92.7755 96.9374ZM70.104 74.2658C68.198 76.8421 64.849 78.1738 61.5121 77.3613L42.1284 72.6419C41.2319 72.4236 40.5598 71.712 40.3889 70.8362L38.7766 62.5765C38.6734 62.0475 38.9644 61.5026 39.501 61.2985L42.4551 60.175C45.5407 59.0014 48.2053 56.9491 50.1187 54.2806L70.104 74.2658ZM52.39 39.9054L56.6509 44.1663L57.3267 43.1158C58.0921 41.9261 58.4013 40.4004 58.5921 39.3527C58.6845 38.8451 58.7577 38.3932 58.8267 37.967C58.9365 37.2886 59.0359 36.6748 59.1857 36.0052C59.4199 34.9586 59.6641 34.3942 59.8615 34.1279C59.8682 34.1188 59.8739 34.1108 59.8788 34.1036C59.8832 34.0973 59.8869 34.0917 59.8903 34.0867C59.9022 34.0689 59.909 34.0587 59.9184 34.053C59.931 34.0454 59.9483 34.0457 59.9886 34.0464L60.0417 34.047C60.5159 34.047 61.1403 34.2614 61.7953 35.4149C62.4796 36.6197 62.9732 38.5531 62.9732 41.0182C62.9732 42.9964 62.3601 45.6284 61.3249 48.8404L65.3649 52.8803H71.1253C71.2659 52.8803 71.6234 52.8975 72.0366 52.9358C72.2326 52.954 72.4139 52.9745 72.5616 52.9951C72.6764 53.0111 72.7378 53.0226 72.7567 53.0261C74.621 53.4983 75.6162 55.1799 75.1356 57.052L73.992 61.5075L78.8272 66.3426L80.8363 58.5152C82.1191 53.5171 79.2537 48.5999 74.202 47.3204C73.6961 47.1922 73.0373 47.118 72.5807 47.0756C72.0819 47.0293 71.5231 46.9949 71.1253 46.9949H67.9886C68.5122 44.9173 68.8586 42.8831 68.8586 41.0182C68.8586 37.8846 68.249 34.861 66.9131 32.5085C65.5479 30.1046 63.2353 28.1615 60.0417 28.1615C57.867 28.1615 56.2164 29.162 55.1333 30.6233C54.1765 31.9142 53.72 33.4791 53.4423 34.7202C53.2602 35.5339 53.1036 36.4896 52.9718 37.2934C52.9097 37.6722 52.853 38.0177 52.8019 38.2983C52.7093 38.8071 52.6219 39.2042 52.5304 39.5143C52.4646 39.7371 52.4132 39.8565 52.39 39.9054ZM93.4894 81.0049L99.2286 86.744C99.325 86.0637 99.3748 85.3685 99.3748 84.6615V69.3595C99.3748 67.7342 98.0573 66.4167 96.4321 66.4167C94.8069 66.4167 93.4894 67.7342 93.4894 69.3595V81.0049ZM27.2559 14.7713L32.9951 20.5105H44.6405C46.2657 20.5105 47.5832 19.193 47.5832 17.5678C47.5832 15.9426 46.2657 14.6251 44.6405 14.6251H29.3384C28.6315 14.6251 27.9362 14.6749 27.2559 14.7713ZM99.3748 29.3386C99.3748 21.2126 92.7874 14.6251 84.6613 14.6251H69.3592C67.734 14.6251 66.4165 15.9426 66.4165 17.5678C66.4165 19.193 67.734 20.5105 69.3592 20.5105H84.6613C89.5369 20.5105 93.4894 24.463 93.4894 29.3386V44.6407C93.4894 46.2659 94.8069 47.5834 96.4321 47.5834C98.0573 47.5834 99.3748 46.2659 99.3748 44.6407V29.3386ZM29.3384 99.3751C21.2123 99.3751 14.6248 92.7876 14.6248 84.6615V69.3595C14.6248 67.7342 15.9423 66.4167 17.5675 66.4167C19.1928 66.4167 20.5103 67.7342 20.5103 69.3595V84.6615C20.5103 89.5372 24.4627 93.4897 29.3384 93.4897H44.6405C46.2657 93.4897 47.5832 94.8072 47.5832 96.4324C47.5832 98.0576 46.2657 99.3751 44.6405 99.3751H29.3384Z" fill="#615B4C"/>
</svg>
